# xmcd
#
# Track frame offsets:
#	150
#	16016
#	39055
#	53825
#	72397
#	92946
#	110036
#	130162
#	154918
#	177762
#	198159
#	208819
#	226768
#	245017
#	259983
#	277739
#	292889
#
# Disc length: 4212 seconds
#
# Revision: 1
# Processed by: cddbd v1.5.1PL2 Copyright (c) Steve Scherf et al.
# Submitted via: audiograbber 1.83.01
#
DISCID=e9107211
DTITLE=Blue Dogs - Live at Workplay
DYEAR=2006
DGENRE=Country Rock
TTITLE0=Cosmic Cowboy
TTITLE1=The Way Back
TTITLE2=Sister
TTITLE3=Missed It By A Mile
TTITLE4=My Forever You
TTITLE5=I'm All About You
TTITLE6=Always As We Know It
TTITLE7=Bill Bill
TTITLE8=Half Of My Mistakes
TTITLE9=Children Go Where I Send Thee
TTITLE10=Conversation With A Mule
TTITLE11=Baby's Coming Home
TTITLE12=Make Your Mama Proud
TTITLE13=LA County
TTITLE14=Isabelle
TTITLE15=Your Sweet Love
TTITLE16=Blue Canoe
EXTD=Birmingham, Alabama 01.25.2005
EXTT0=
EXTT1=
EXTT2=
EXTT3=
EXTT4=
EXTT5=
EXTT6=
EXTT7=
EXTT8=
EXTT9=
EXTT10=
EXTT11=
EXTT12=
EXTT13=
EXTT14=
EXTT15=
EXTT16=
PLAYORDER=
